# xmcd
#
# Track frame offsets:
#       150
#       24019
#       36535
#       61053
#       89613
#       104021
#       131274
#       156981
#       175402
#       200943
#       224276
#       230562
#       250932
#       272636
#       281878
#       292200
#       311977
#
# Disc length: 4399 seconds
#
# Revision: 1
# Processed by: cddbd v1.4PL0 Copyright (c) Steve Scherf et al.
# Submitted via: CD-DA_X-Tractor v0.21
#
DISCID=12112d11
DTITLE=Kruder and Dorfmeister - aa Please delete this entry !!!
DYEAR=1900
DGENRE=
TTITLE0=A Mother
TTITLE1=Bass and several Cars
TTITLE2=Dadamnphreaknoizphunk
TTITLE3=DJKicks
TTITLE4=Give me my soul
TTITLE5=High Noon
TTITLE6=In too deep
TTITLE7=Kauna
TTITLE8=Keep on believing
TTITLE9=Livin' Free
TTITLE10=Look up Dere
TTITLE11=Never Say ?
TTITLE12=Que Color
TTITLE13=Radio Burning Chrome
TTITLE14=Revolutionary Pilot
TTITLE15=Shaolin Satellite
TTITLE16=Spellbound
EXTD=
EXTT0=
EXTT1=
EXTT2=
EXTT3=
EXTT4=
EXTT5=
EXTT6=
EXTT7=
EXTT8=
EXTT9=
EXTT10=
EXTT11=
EXTT12=
EXTT13=
EXTT14=
EXTT15=
EXTT16=
PLAYORDER=
